<svg width="600" height="600" viewBox="0 0 600 600" fill="none" xmlns="http://www.w3.org/2000/svg">
<path fill-rule="evenodd" clip-rule="evenodd" d="M550 100C577.614 100 600 77.6142 600 50C600 22.3858 577.614 0 550 0C522.386 0 500 22.3858 500 50C500 59.9109 502.884 69.1484 507.858 76.9191L469.875 114.901C457.362 105.542 441.828 100 425 100C388.503 100 358.094 126.07 351.38 160.604L144.168 176.543C135.763 160.751 119.137 150 100 150C72.3858 150 50 172.386 50 200C50 219.137 60.7514 235.763 76.5434 244.168L60.604 451.38C26.0699 458.094 0 488.503 0 525C0 566.421 33.5786 600 75 600C111.497 600 141.906 573.93 148.62 539.396L355.832 523.457C364.237 539.249 380.863 550 400 550C427.614 550 450 527.614 450 500C450 480.863 439.249 464.237 423.457 455.832L439.396 248.62C473.93 241.906 500 211.497 500 175C500 157.618 494.087 141.617 484.162 128.899L521.78 91.2809C529.812 96.7819 539.53 100 550 100ZM350.217 180.753C353.011 217.587 382.413 246.989 419.247 249.783L403.835 450.145C402.569 450.049 401.29 450 400 450C372.386 450 350 472.386 350 500C350 501.29 350.049 502.569 350.145 503.835L149.783 519.247C146.989 482.413 117.587 453.011 80.7525 450.217L96.165 249.855C97.4307 249.951 98.7097 250 100 250C127.614 250 150 227.614 150 200C150 198.71 149.951 197.431 149.855 196.165L350.217 180.753ZM350 350C350 405.228 305.228 450 250 450C194.772 450 150 405.228 150 350C150 294.772 194.772 250 250 250C305.228 250 350 294.772 350 350Z" fill="url(#paint0_linear_2372_25)"/>
<defs>
<linearGradient id="paint0_linear_2372_25" x1="600" y1="0" x2="0" y2="600" gradientUnits="userSpaceOnUse">
<stop stop-color="#E7C6FF"/>
<stop offset="0.345" stop-color="#C8B6FF"/>
<stop offset="0.685" stop-color="#B8C0FF"/>
<stop offset="1" stop-color="#BBD0FF"/>
</linearGradient>
</defs>
</svg>
